<svg width="106" height="132" viewBox="0 0 106 132" fill="none" xmlns="http://www.w3.org/2000/svg">
<path fill-rule="evenodd" clip-rule="evenodd" d="M35.3334 0L35.3334 12.8485L106 12.8485L106 0.426603L49.3312 0.426603V0L35.3334 0Z" fill="url(#paint0_radial_866_7107)"/>
<path fill-rule="evenodd" clip-rule="evenodd" d="M35.3334 22.5664L36.0612 22.5664L93.6579 106L106 106L106 3.05176e-05L93.2464 3.16325e-05L93.2465 83.2266L92.2179 83.2266L35.3333 0.734335L35.3334 22.5664Z" fill="url(#paint1_linear_866_7107)"/>
<path fill-rule="evenodd" clip-rule="evenodd" d="M70.6666 131.697L70.6666 118.848L-1.52588e-05 118.848L-1.52588e-05 131.27L56.6688 131.27V131.697L70.6666 131.697Z" fill="url(#paint2_radial_866_7107)"/>
<path fill-rule="evenodd" clip-rule="evenodd" d="M70.6667 109.13L69.9388 109.13L12.3421 25.6969L0 25.6969L9.26681e-06 131.697L12.7536 131.697L12.7535 48.4703L13.7821 48.4703L70.6667 130.963L70.6667 109.13Z" fill="url(#paint3_linear_866_7107)"/>
<defs>
<radialGradient id="paint0_radial_866_7107" cx="0" cy="0" r="1" gradientUnits="userSpaceOnUse" gradientTransform="translate(140.543 -26.9014) rotate(-156.794) scale(136.186 117.526)">
<stop stop-color="#E574F7"/>
<stop offset="0.591351" stop-color="#C026D3"/>
<stop offset="0.875" stop-color="#0F172A"/>
</radialGradient>
<linearGradient id="paint1_linear_866_7107" x1="28.9091" y1="-8.03026" x2="41.866" y2="129.663" gradientUnits="userSpaceOnUse">
<stop stop-color="#C026D3" stop-opacity="0"/>
<stop offset="0.178039" stop-color="#C026D3"/>
<stop offset="0.9999" stop-color="#E879F9"/>
<stop offset="1" stop-color="#E777F8"/>
</linearGradient>
<radialGradient id="paint2_radial_866_7107" cx="0" cy="0" r="1" gradientUnits="userSpaceOnUse" gradientTransform="translate(-34.5431 158.598) rotate(23.206) scale(136.186 117.526)">
<stop stop-color="#E574F7"/>
<stop offset="0.591351" stop-color="#C026D3"/>
<stop offset="0.875" stop-color="#0F172A"/>
</radialGradient>
<linearGradient id="paint3_linear_866_7107" x1="77.0909" y1="139.727" x2="64.134" y2="2.03364" gradientUnits="userSpaceOnUse">
<stop stop-color="#C026D3" stop-opacity="0"/>
<stop offset="0.178039" stop-color="#C026D3"/>
<stop offset="0.9999" stop-color="#E879F9"/>
<stop offset="1" stop-color="#E777F8"/>
</linearGradient>
</defs>
</svg>
